<svg width="40" height="40" viewBox="0 0 40 40" fill="none" xmlns="http://www.w3.org/2000/svg">
<path fill-rule="evenodd" clip-rule="evenodd" d="M12.4477 10.6906C11.9086 10.2594 11.122 10.3468 10.6907 10.8859C10.2594 11.4249 10.3468 12.2116 10.8859 12.6428L19.2193 19.3095C19.6758 19.6747 20.3245 19.6747 20.781 19.3095L29.1143 12.6428C29.6534 12.2116 29.7408 11.4249 29.3095 10.8859C28.8783 10.3468 28.0917 10.2594 27.5526 10.6906L20.0001 16.7326L12.4477 10.6906ZM12.4477 20.6906C11.9086 20.2594 11.122 20.3468 10.6907 20.8859C10.2594 21.4249 10.3468 22.2116 10.8859 22.6428L19.2193 29.3095C19.6758 29.6747 20.3245 29.6747 20.781 29.3095L29.1143 22.6428C29.6534 22.2116 29.7408 21.4249 29.3095 20.8859C28.8783 20.3468 28.0917 20.2594 27.5526 20.6906L20.0001 26.7326L12.4477 20.6906Z" fill="white"/>
</svg>
