<svg width="48" height="48" viewBox="0 0 48 48" fill="none" xmlns="http://www.w3.org/2000/svg">
<path fill-rule="evenodd" clip-rule="evenodd" d="M10 7.5C8.61929 7.5 7.5 8.61929 7.5 10C7.5 26.8447 21.1553 40.5 38 40.5C39.3807 40.5 40.5 39.3807 40.5 38V34.7081C40.5 33.6859 39.8776 32.7666 38.9285 32.3869L34.8602 30.7596C33.653 30.2767 32.2771 30.7998 31.6957 31.9628L31.3416 32.6708C31.0391 33.2758 30.3691 33.6035 29.7058 33.4709L30 32C29.7058 33.4709 29.7063 33.471 29.7058 33.4709L29.7038 33.4705L29.7014 33.47L29.6951 33.4687L29.677 33.4649L29.6195 33.4525C29.5718 33.442 29.5058 33.4269 29.4228 33.4067C29.2569 33.3664 29.023 33.3056 28.733 33.2203C28.1537 33.0499 27.3467 32.7805 26.4091 32.3787C24.5408 31.578 22.1122 30.2335 19.9393 28.0607C17.7665 25.8878 16.422 23.4592 15.6213 21.5909C15.2195 20.6533 14.9501 19.8463 14.7797 19.267C14.6944 18.977 14.6336 18.7431 14.5933 18.5772C14.5731 18.4942 14.558 18.4282 14.5475 18.3805L14.5351 18.323L14.5313 18.3049L14.53 18.2986L14.5295 18.2962C14.5294 18.2957 14.5291 18.2942 16 18L14.5291 18.2942C14.3965 17.6309 14.7242 16.9609 15.3292 16.6584L16.0372 16.3043C17.2002 15.7229 17.7233 14.347 17.2404 13.1398L15.6131 9.07152C15.2334 8.12238 14.3141 7.5 13.2919 7.5H10ZM17.7664 18.7742C20.051 17.3946 21.0329 14.5434 20.0258 12.0256L18.3985 7.95735C17.5632 5.86923 15.5408 4.5 13.2919 4.5H10C6.96243 4.5 4.5 6.96243 4.5 10C4.5 28.5015 19.4985 43.5 38 43.5C41.0376 43.5 43.5 41.0376 43.5 38V34.7081C43.5 32.4592 42.1308 30.4368 40.0426 29.6015L35.9744 27.9742C33.4566 26.9671 30.6054 27.949 29.2258 30.2336C28.7812 30.0913 28.2221 29.8918 27.5909 29.6213C25.9592 28.922 23.8878 27.7665 22.0607 25.9393C20.2335 24.1122 19.078 22.0408 18.3787 20.4091C18.1082 19.7779 17.9087 19.2188 17.7664 18.7742Z" fill="#3E3E3E"/>
</svg>
