<svg width="48" height="48" viewBox="0 0 48 48" fill="none" xmlns="http://www.w3.org/2000/svg">
<path fill-rule="evenodd" clip-rule="evenodd" d="M2.5 14C2.5 8.75329 6.75329 4.5 12 4.5H36C41.2467 4.5 45.5 8.75329 45.5 14V34C45.5 39.2467 41.2467 43.5 36 43.5H12C6.75329 43.5 2.5 39.2467 2.5 34V14ZM12 7.5C8.41015 7.5 5.5 10.4101 5.5 14V34C5.5 37.5899 8.41015 40.5 12 40.5H36C39.5898 40.5 42.5 37.5899 42.5 34V14C42.5 10.4101 39.5898 7.5 36 7.5H12Z" fill="#3E3E3E"/>
<path fill-rule="evenodd" clip-rule="evenodd" d="M2.82875 13.063C3.34627 12.4161 4.29021 12.3112 4.9371 12.8288L19.9395 24.8307C22.3135 26.7298 25.6867 26.7298 28.0606 24.8307L43.063 12.8288C43.7099 12.3112 44.6539 12.4161 45.1714 13.063C45.6889 13.7099 45.584 14.6538 44.9371 15.1714L29.9347 27.1733C26.4651 29.949 21.535 29.949 18.0655 27.1733L3.06301 15.1714C2.41612 14.6538 2.31124 13.7099 2.82875 13.063Z" fill="#3E3E3E"/>
</svg>
