<svg width="48" height="48" viewBox="0 0 48 48" fill="none" xmlns="http://www.w3.org/2000/svg">
<path fill-rule="evenodd" clip-rule="evenodd" d="M2.5 12C2.5 6.75329 6.75329 2.5 12 2.5H36C41.2467 2.5 45.5 6.75329 45.5 12V36C45.5 41.2467 41.2467 45.5 36 45.5H12C6.75329 45.5 2.5 41.2467 2.5 36V12ZM12 5.5C8.41015 5.5 5.5 8.41015 5.5 12V36C5.5 39.5898 8.41015 42.5 12 42.5H36C39.5898 42.5 42.5 39.5898 42.5 36V12C42.5 8.41015 39.5898 5.5 36 5.5H12Z" fill="#3E3E3E"/>
<path d="M38 12C38 13.1046 37.1046 14 36 14C34.8954 14 34 13.1046 34 12C34 10.8954 34.8954 10 36 10C37.1046 10 38 10.8954 38 12Z" fill="#3E3E3E"/>
<path fill-rule="evenodd" clip-rule="evenodd" d="M24 15.5C19.3056 15.5 15.5 19.3056 15.5 24C15.5 28.6944 19.3056 32.5 24 32.5C28.6944 32.5 32.5 28.6944 32.5 24C32.5 19.3056 28.6944 15.5 24 15.5ZM12.5 24C12.5 17.6487 17.6487 12.5 24 12.5C30.3513 12.5 35.5 17.6487 35.5 24C35.5 30.3513 30.3513 35.5 24 35.5C17.6487 35.5 12.5 30.3513 12.5 24Z" fill="#3E3E3E"/>
</svg>
