<svg width="32" height="32" viewBox="0 0 32 32" fill="none" xmlns="http://www.w3.org/2000/svg">
<path fill-rule="evenodd" clip-rule="evenodd" d="M5.33341 3.66663C4.41294 3.66663 3.66675 4.41282 3.66675 5.33329C3.66675 6.25377 4.41294 6.99996 5.33341 6.99996C6.25389 6.99996 7.00008 6.25377 7.00008 5.33329C7.00008 4.41282 6.25389 3.66663 5.33341 3.66663ZM1.66675 5.33329C1.66675 3.30825 3.30837 1.66663 5.33341 1.66663C7.35846 1.66663 9.00008 3.30825 9.00008 5.33329C9.00008 7.35834 7.35846 8.99996 5.33341 8.99996C3.30837 8.99996 1.66675 7.35834 1.66675 5.33329Z" fill="#7E7E7E"/>
<path fill-rule="evenodd" clip-rule="evenodd" d="M1.66675 11.3334C1.66675 10.7811 2.11446 10.3334 2.66675 10.3334H8.00008C8.55237 10.3334 9.00008 10.7811 9.00008 11.3334V29.3334C9.00008 29.8857 8.55237 30.3334 8.00008 30.3334H2.66675C2.11446 30.3334 1.66675 29.8857 1.66675 29.3334V11.3334ZM3.66675 12.3334V28.3334H7.00008V12.3334H3.66675Z" fill="#7E7E7E"/>
<path fill-rule="evenodd" clip-rule="evenodd" d="M11 11.3334C11 10.7811 11.4477 10.3334 12 10.3334H17.3333C17.8255 10.3334 18.2346 10.6889 18.3179 11.1572C18.8633 11.054 19.4257 11 20 11C24.9706 11 29 15.0295 29 20V29.3334C29 29.8857 28.5523 30.3334 28 30.3334H22.6667C22.1144 30.3334 21.6667 29.8857 21.6667 29.3334V20C21.6667 19.0796 20.9205 18.3334 20 18.3334C19.0795 18.3334 18.3333 19.0796 18.3333 20V29.3334C18.3333 29.8857 17.8856 30.3334 17.3333 30.3334H12C11.4477 30.3334 11 29.8857 11 29.3334V11.3334ZM13 28.3334H16.3333V20C16.3333 17.975 17.975 16.3334 20 16.3334C22.025 16.3334 23.6667 17.975 23.6667 20V28.3334H27V20C27 16.134 23.866 13 20 13C19.1801 13 18.3951 13.1406 17.6666 13.3981C17.3605 13.5063 17.021 13.4592 16.7559 13.2717C16.4909 13.0843 16.3333 12.7799 16.3333 12.4553V12.3334H13V28.3334Z" fill="#7E7E7E"/>
</svg>
