<svg width="48" height="48" viewBox="0 0 48 48" fill="none" xmlns="http://www.w3.org/2000/svg">
<path fill-rule="evenodd" clip-rule="evenodd" d="M8 5.5C6.61929 5.5 5.5 6.61929 5.5 8C5.5 9.38071 6.61929 10.5 8 10.5C9.38071 10.5 10.5 9.38071 10.5 8C10.5 6.61929 9.38071 5.5 8 5.5ZM2.5 8C2.5 4.96243 4.96243 2.5 8 2.5C11.0376 2.5 13.5 4.96243 13.5 8C13.5 11.0376 11.0376 13.5 8 13.5C4.96243 13.5 2.5 11.0376 2.5 8Z" fill="#3E3E3E"/>
<path fill-rule="evenodd" clip-rule="evenodd" d="M2.5 17C2.5 16.1716 3.17157 15.5 4 15.5H12C12.8284 15.5 13.5 16.1716 13.5 17V44C13.5 44.8284 12.8284 45.5 12 45.5H4C3.17157 45.5 2.5 44.8284 2.5 44V17ZM5.5 18.5V42.5H10.5V18.5H5.5Z" fill="#3E3E3E"/>
<path fill-rule="evenodd" clip-rule="evenodd" d="M16.5 17C16.5 16.1716 17.1716 15.5 18 15.5H26C26.7382 15.5 27.3519 16.0333 27.4768 16.7357C28.2949 16.5809 29.1385 16.5 30 16.5C37.4558 16.5 43.5 22.5442 43.5 30V44C43.5 44.8284 42.8284 45.5 42 45.5H34C33.1716 45.5 32.5 44.8284 32.5 44V30C32.5 28.6193 31.3807 27.5 30 27.5C28.6193 27.5 27.5 28.6193 27.5 30V44C27.5 44.8284 26.8284 45.5 26 45.5H18C17.1716 45.5 16.5 44.8284 16.5 44V17ZM19.5 42.5H24.5V30C24.5 26.9624 26.9624 24.5 30 24.5C33.0376 24.5 35.5 26.9624 35.5 30V42.5H40.5V30C40.5 24.201 35.799 19.5 30 19.5C28.7701 19.5 27.5927 19.7108 26.4999 20.0971C26.0408 20.2593 25.5315 20.1887 25.1339 19.9075C24.7364 19.6264 24.5 19.1698 24.5 18.6828V18.5H19.5V42.5Z" fill="#3E3E3E"/>
</svg>
