<svg width="32" height="32" viewBox="0 0 32 32" fill="none" xmlns="http://www.w3.org/2000/svg">
<path fill-rule="evenodd" clip-rule="evenodd" d="M1.66675 9.33333C1.66675 5.83553 4.50228 3 8.00008 3H24.0001C27.4979 3 30.3334 5.83553 30.3334 9.33333V22.6667C30.3334 26.1645 27.4979 29 24.0001 29H8.00008C4.50228 29 1.66675 26.1645 1.66675 22.6667V9.33333ZM8.00008 5C5.60685 5 3.66675 6.9401 3.66675 9.33333V22.6667C3.66675 25.0599 5.60685 27 8.00008 27H24.0001C26.3933 27 28.3334 25.0599 28.3334 22.6667V9.33333C28.3334 6.9401 26.3933 5 24.0001 5H8.00008Z" fill="#7E7E7E"/>
<path fill-rule="evenodd" clip-rule="evenodd" d="M1.88592 8.70859C2.23093 8.27733 2.86022 8.20741 3.29148 8.55242L13.2931 16.5537C14.8757 17.8198 17.1245 17.8198 18.7071 16.5537L28.7088 8.55242C29.14 8.20741 29.7693 8.27733 30.1143 8.70859C30.4593 9.13986 30.3894 9.76915 29.9581 10.1142L19.9565 18.1155C17.6435 19.9659 14.3568 19.9659 12.0437 18.1155L2.04209 10.1142C1.61083 9.76915 1.54091 9.13986 1.88592 8.70859Z" fill="#7E7E7E"/>
</svg>
