<svg width="36" height="36" viewBox="0 0 36 36" fill="none" xmlns="http://www.w3.org/2000/svg">
<path fill-rule="evenodd" clip-rule="evenodd" d="M10.8407 10.8405C11.2801 10.4012 11.9924 10.4012 12.4317 10.8405L18.0002 16.409L23.5687 10.8406C24.008 10.4012 24.7203 10.4012 25.1597 10.8406C25.599 11.2799 25.599 11.9922 25.1597 12.4316L19.5912 18L25.1597 23.5684C25.599 24.0078 25.599 24.7201 25.1597 25.1594C24.7203 25.5988 24.008 25.5988 23.5687 25.1594L18.0002 19.591L12.4317 25.1595C11.9924 25.5988 11.2801 25.5988 10.8407 25.1595C10.4014 24.7202 10.4014 24.0078 10.8407 23.5685L16.4092 18L10.8407 12.4315C10.4014 11.9922 10.4014 11.2798 10.8407 10.8405Z" fill="#28303F"/>
</svg>
