<svg width="48" height="48" viewBox="0 0 48 48" fill="none" xmlns="http://www.w3.org/2000/svg">
<path fill-rule="evenodd" clip-rule="evenodd" d="M38 7.51234C40.5329 6.4177 43.2773 8.54775 42.8453 11.273L38.6373 37.8249C38.1824 40.6951 34.6302 41.7928 32.6354 39.6797L32.6319 39.6761L25.9681 32.5696C25.9676 32.569 25.9671 32.5685 25.9666 32.5679C24.1132 30.6031 23.9617 27.5847 25.6049 25.4447L26.705 23.9074L22.0486 27.0311C20.095 28.3417 17.7246 28.8808 15.3963 28.5441L8.11018 27.4903C4.61722 26.9851 3.98299 22.2137 7.22267 20.8136L38 7.51234L38.5951 8.88925L38 7.51234ZM39.8823 10.8034C39.944 10.4141 39.552 10.1098 39.1901 10.2662L8.41281 23.5674C8.26577 23.6309 8.20009 23.7107 8.16408 23.7795C8.12182 23.8602 8.0993 23.9702 8.11553 24.0922C8.13175 24.2143 8.18222 24.3146 8.24409 24.3814C8.29681 24.4384 8.38106 24.4983 8.5396 24.5212L15.8257 25.575C17.4187 25.8054 19.0406 25.4365 20.3773 24.5398L30.0719 18.0361C31.8537 16.8409 33.9306 19.0499 32.6534 20.7501L28.0287 27.2127C28.0172 27.2287 28.0054 27.2445 27.9933 27.2601C27.2368 28.2337 27.3031 29.6136 28.1496 30.5102L28.153 30.5138L34.8168 37.6203C34.8172 37.6207 34.8175 37.621 34.8179 37.6214C35.103 37.9218 35.6093 37.7649 35.6742 37.3554L39.8823 10.8034Z" fill="#3E3E3E"/>
</svg>
